<svg xmlns="http://www.w3.org/2000/svg" viewBox="0 0 64 64" role="img" aria-label="SACSA heart-balloons logo">
  <circle cx="32" cy="32" r="32" fill="#166069"/>
  <path d="M32 45 C 19 35.5, 13.5 27.5, 15.5 19.5 C 17 13.5, 23.5 11.5, 28 14.5 C 30.5 16.2, 31.5 18.2, 32 20 C 32.5 18.2, 33.5 16.2, 36 14.5 C 40.5 11.5, 47 13.5, 48.5 19.5 C 50.5 27.5, 45 35.5, 32 45 Z" fill="#ffffff"/>
  <path d="M27.5 44.5 q -3 4.5 -0.5 8.5 q 2 3.5 -1 6.5" stroke="#ffffff" stroke-width="2.2" fill="none" stroke-linecap="round"/>
  <path d="M36.5 44.5 q 3 4.5 0.5 8.5 q -2 3.5 1 6.5" stroke="#ffffff" stroke-width="2.2" fill="none" stroke-linecap="round"/>
</svg>
